<svg id="Capa_1" data-name="Capa 1" xmlns="http://www.w3.org/2000/svg" viewBox="0 0 1920 1080"><defs><style>.cls-1{fill:#fff;}</style></defs><rect width="1920" height="1080"/><path class="cls-1" d="M625,339.33c44.06,0,86.11-2.43,127.72.78,32.63,2.52,54,24.79,58.6,57.17,3.55,25.16,2.94,51.35.6,76.76-1.93,20.93-13.3,38.59-31.38,48.15,10.92,13.48,25.72,24.92,31.19,39.79,15.63,42.54,15.11,87,1.12,129.92-10,30.54-35.9,45.38-66.68,47.49-36.64,2.52-73.52,1.34-110.29,2.24-12.89.31-10.87-8.25-10.87-16q0-108,0-216Zm64.21,342.39c4.19.75,6.18,1.41,8.17,1.41,10,0,20,.4,29.87-.25,18.73-1.24,27.92-9.66,29.36-28.29,1.21-15.64,1-31.41.83-47.12C757,568.9,747,559,708.77,558.94c-6.07,0-12.14,0-18.76,0-.35,7.08-.76,11.72-.77,16.36C689.18,610.37,689.21,645.44,689.21,681.72Zm0-234.85c0,14.21-.3,28.43.22,42.62.13,3.56,1.95,8.93,4.59,10.23,23.76,11.65,54.77-5.87,56.42-32a331.73,331.73,0,0,0-.27-44.14C748.91,405.07,739.06,396,720.88,395c-6.82-.39-13.7.21-20.51-.25-8.27-.56-11.36,3.07-11.2,11.07C689.45,419.51,689.25,433.19,689.24,446.87Z" transform="translate(0 -1)"/><path class="cls-1" d="M1313.2,337.49h62.6V371c0,40,.72,80-.36,119.94-.43,15.65,4.82,20.25,19.67,18.85a240.34,240.34,0,0,1,37.85-.05c11.09.73,14.6-3.27,14.48-14.32-.49-45.76-.21-91.53-.21-137.3V338h65.32v15.89c0,123.1-.25,246.21.32,369.31.07,14.67-4.08,19.55-18.59,18.42-15-1.17-30.22-.26-46.85-.26v-172h-71.58v171H1313.2Z" transform="translate(0 -1)"/><path class="cls-1" d="M856.91,337.53h63.82v16.92q0,142.76,0,285.53c0,7.34-.07,14.82,1.29,22,3.16,16.68,13.86,24.64,31.52,24.6,17.85,0,28.13-7.91,31.11-24.86a136.82,136.82,0,0,0,1.63-23.53q.15-141.18.06-282.37v-18h60.39v16.69q0,140.4,0,280.8c0,5.78,0,11.58-.3,17.34C1042,730,973.54,769.74,903.28,735.78c-26.11-12.62-38.33-35-43.63-62A157.11,157.11,0,0,1,857.09,644q-.32-145.14-.18-290.27Z" transform="translate(0 -1)"/><path class="cls-1" d="M311.54,741.33c-20.61,0-39.36.48-58-.51-2.88-.15-7-6.75-7.81-10.9-3.2-16.5-5.64-33.17-7.67-49.86-1.07-8.79-4.23-13-13.87-12.69-17.86.6-35.76.47-53.63-.06C161.12,667,157.74,671,156.62,680c-2.54,20.22-6.06,40.33-9.19,60.56H89c21.59-135,43-268.59,64.6-403.88,29.33,0,57.62-.38,85.86.52,3.21.1,8.26,7.08,9,11.44,16,97.51,31.42,195.1,47,292.67C300.61,673.83,305.9,706.37,311.54,741.33ZM227.41,611.76c-9.8-64.68-19.35-127.65-28.9-190.62l-3.38.38c-9.31,63-18.62,126.06-28.09,190.24Z" transform="translate(0 -1)"/><path class="cls-1" d="M1274.91,472.26h-62.18c0-18.38,1.12-35.7-.28-52.83C1210.71,398,1195,387.28,1173.8,391c-15.28,2.71-24.29,13.31-25.09,31.67-.79,17.84-.39,35.74-.39,53.61,0,57.84-.18,115.68.18,173.51.16,26,11.53,37.52,34.48,36.67,17-.63,27.2-8.36,28.9-25.25,1.83-18.24,2-36.74,1.42-55.09-.34-12,2.75-16.5,15.67-16.48,45.18.07,46.23-.38,44.67,45a263.26,263.26,0,0,1-10.43,63.1c-5.59,19.49-20.88,32.64-40,39.93-29.12,11.14-58.82,11.57-87.77.06-34.6-13.76-49.14-43.09-49.82-77.52q-2.39-120.61-.21-241.3c1-52.62,33.62-83.82,85.36-86.71,57.69-3.22,92.54,22.49,100.8,76.52C1274.76,429.29,1273.9,450.39,1274.91,472.26Z" transform="translate(0 -1)"/><path class="cls-1" d="M1622.57,507.05h86.22v57.73h-85.12V683.21h70.54c38,0,38,0,37.92,37.78-.05,20.47-.05,20.51-20.42,20.52q-67.05,0-134.11,0h-17.9V338H1732c0,16.47.61,32.62-.55,48.65-.22,3-7.55,7.68-11.7,7.78-27.86.7-55.75,0-83.6.77-4.6.13-12.91,5.15-13,8.08C1622.24,436.84,1622.57,470.4,1622.57,507.05Z" transform="translate(0 -1)"/><path class="cls-1" d="M341.68,337.54h62V683.19h72c33.42,0,33.49,0,33.43,32.71,0,28.22,3.55,25.56-24.86,25.61-43.12.07-86.24-.12-129.36.12-9.06,0-14.59-1-14.55-12.53q.54-192.44.31-384.87C340.63,342.69,341.1,341.14,341.68,337.54Z" transform="translate(0 -1)"/><path class="cls-1" d="M1831,678.12v60.61h-60.71c0-17.8-.41-35.46.44-53.06.12-2.66,6-7,9.4-7.21C1796.36,677.7,1812.62,678.12,1831,678.12Z" transform="translate(0 -1)"/><path d="M689.21,681.72c0-36.28,0-71.35,0-106.42,0-4.64.42-9.28.77-16.36,6.62,0,12.69,0,18.76,0,38.23.1,48.26,10,48.67,48.53.16,15.71.38,31.48-.83,47.12-1.44,18.63-10.63,27-29.36,28.29-9.92.65-19.91.3-29.87.25C695.39,683.13,693.4,682.47,689.21,681.72Z" transform="translate(0 -1)"/><path d="M689.25,446.87c0-13.68.2-27.36-.08-41-.16-8,2.93-11.63,11.2-11.07,6.81.46,13.69-.14,20.51.25,18.18,1,28,10.06,29.32,28.54a331.73,331.73,0,0,1,.27,44.14c-1.65,26.16-32.66,43.68-56.42,32-2.64-1.3-4.46-6.67-4.59-10.23C688.94,475.3,689.24,461.08,689.25,446.87Z" transform="translate(0 -1)"/><path d="M227.41,611.76H167c9.47-64.18,18.78-127.21,28.09-190.24l3.38-.38C208.06,484.11,217.61,547.08,227.41,611.76Z" transform="translate(0 -1)"/></svg>